<?xml version="1.0" encoding="utf-8" standalone="no"?>
<!DOCTYPE svg PUBLIC "-//W3C//DTD SVG 1.1//EN"
  "http://www.w3.org/Graphics/SVG/1.1/DTD/svg11.dtd">
<!-- Created with matplotlib (https://matplotlib.org/) -->
<svg height="360pt" version="1.1" viewBox="0 0 1008 360" width="1008pt" xmlns="http://www.w3.org/2000/svg" xmlns:xlink="http://www.w3.org/1999/xlink">
 <defs>
  <style type="text/css">
*{stroke-linecap:butt;stroke-linejoin:round;white-space:pre;}
  </style>
 </defs>
 <g id="figure_1">
  <g id="patch_1">
   <path d="M 0 360 
L 1008 360 
L 1008 0 
L 0 0 
z
" style="fill:#ffffff;"/>
  </g>
  <g id="axes_1">
   <g id="patch_2">
    <path d="M 126 115.2 
L 907.2 115.2 
L 907.2 43.2 
L 126 43.2 
z
" style="fill:#ffffff;"/>
   </g>
   <g id="matplotlib.axis_1"/>
   <g id="matplotlib.axis_2">
    <g id="text_1">
     <!-- Voltage -->
     <defs>
      <path d="M 28.609375 0 
L 0.78125 72.90625 
L 11.078125 72.90625 
L 34.1875 11.53125 
L 57.328125 72.90625 
L 67.578125 72.90625 
L 39.796875 0 
z
" id="DejaVuSans-86"/>
      <path d="M 30.609375 48.390625 
Q 23.390625 48.390625 19.1875 42.75 
Q 14.984375 37.109375 14.984375 27.296875 
Q 14.984375 17.484375 19.15625 11.84375 
Q 23.34375 6.203125 30.609375 6.203125 
Q 37.796875 6.203125 41.984375 11.859375 
Q 46.1875 17.53125 46.1875 27.296875 
Q 46.1875 37.015625 41.984375 42.703125 
Q 37.796875 48.390625 30.609375 48.390625 
z
M 30.609375 56 
Q 42.328125 56 49.015625 48.375 
Q 55.71875 40.765625 55.71875 27.296875 
Q 55.71875 13.875 49.015625 6.21875 
Q 42.328125 -1.421875 30.609375 -1.421875 
Q 18.84375 -1.421875 12.171875 6.21875 
Q 5.515625 13.875 5.515625 27.296875 
Q 5.515625 40.765625 12.171875 48.375 
Q 18.84375 56 30.609375 56 
z
" id="DejaVuSans-111"/>
      <path d="M 9.421875 75.984375 
L 18.40625 75.984375 
L 18.40625 0 
L 9.421875 0 
z
" id="DejaVuSans-108"/>
      <path d="M 18.3125 70.21875 
L 18.3125 54.6875 
L 36.8125 54.6875 
L 36.8125 47.703125 
L 18.3125 47.703125 
L 18.3125 18.015625 
Q 18.3125 11.328125 20.140625 9.421875 
Q 21.96875 7.515625 27.59375 7.515625 
L 36.8125 7.515625 
L 36.8125 0 
L 27.59375 0 
Q 17.1875 0 13.234375 3.875 
Q 9.28125 7.765625 9.28125 18.015625 
L 9.28125 47.703125 
L 2.6875 47.703125 
L 2.6875 54.6875 
L 9.28125 54.6875 
L 9.28125 70.21875 
z
" id="DejaVuSans-116"/>
      <path d="M 34.28125 27.484375 
Q 23.390625 27.484375 19.1875 25 
Q 14.984375 22.515625 14.984375 16.5 
Q 14.984375 11.71875 18.140625 8.90625 
Q 21.296875 6.109375 26.703125 6.109375 
Q 34.1875 6.109375 38.703125 11.40625 
Q 43.21875 16.703125 43.21875 25.484375 
L 43.21875 27.484375 
z
M 52.203125 31.203125 
L 52.203125 0 
L 43.21875 0 
L 43.21875 8.296875 
Q 40.140625 3.328125 35.546875 0.953125 
Q 30.953125 -1.421875 24.3125 -1.421875 
Q 15.921875 -1.421875 10.953125 3.296875 
Q 6 8.015625 6 15.921875 
Q 6 25.140625 12.171875 29.828125 
Q 18.359375 34.515625 30.609375 34.515625 
L 43.21875 34.515625 
L 43.21875 35.40625 
Q 43.21875 41.609375 39.140625 45 
Q 35.0625 48.390625 27.6875 48.390625 
Q 23 48.390625 18.546875 47.265625 
Q 14.109375 46.140625 10.015625 43.890625 
L 10.015625 52.203125 
Q 14.9375 54.109375 19.578125 55.046875 
Q 24.21875 56 28.609375 56 
Q 40.484375 56 46.34375 49.84375 
Q 52.203125 43.703125 52.203125 31.203125 
z
" id="DejaVuSans-97"/>
      <path d="M 45.40625 27.984375 
Q 45.40625 37.75 41.375 43.109375 
Q 37.359375 48.484375 30.078125 48.484375 
Q 22.859375 48.484375 18.828125 43.109375 
Q 14.796875 37.75 14.796875 27.984375 
Q 14.796875 18.265625 18.828125 12.890625 
Q 22.859375 7.515625 30.078125 7.515625 
Q 37.359375 7.515625 41.375 12.890625 
Q 45.40625 18.265625 45.40625 27.984375 
z
M 54.390625 6.78125 
Q 54.390625 -7.171875 48.1875 -13.984375 
Q 42 -20.796875 29.203125 -20.796875 
Q 24.46875 -20.796875 20.265625 -20.09375 
Q 16.0625 -19.390625 12.109375 -17.921875 
L 12.109375 -9.1875 
Q 16.0625 -11.328125 19.921875 -12.34375 
Q 23.78125 -13.375 27.78125 -13.375 
Q 36.625 -13.375 41.015625 -8.765625 
Q 45.40625 -4.15625 45.40625 5.171875 
L 45.40625 9.625 
Q 42.625 4.78125 38.28125 2.390625 
Q 33.9375 0 27.875 0 
Q 17.828125 0 11.671875 7.65625 
Q 5.515625 15.328125 5.515625 27.984375 
Q 5.515625 40.671875 11.671875 48.328125 
Q 17.828125 56 27.875 56 
Q 33.9375 56 38.28125 53.609375 
Q 42.625 51.21875 45.40625 46.390625 
L 45.40625 54.6875 
L 54.390625 54.6875 
z
" id="DejaVuSans-103"/>
      <path d="M 56.203125 29.59375 
L 56.203125 25.203125 
L 14.890625 25.203125 
Q 15.484375 15.921875 20.484375 11.0625 
Q 25.484375 6.203125 34.421875 6.203125 
Q 39.59375 6.203125 44.453125 7.46875 
Q 49.3125 8.734375 54.109375 11.28125 
L 54.109375 2.78125 
Q 49.265625 0.734375 44.1875 -0.34375 
Q 39.109375 -1.421875 33.890625 -1.421875 
Q 20.796875 -1.421875 13.15625 6.1875 
Q 5.515625 13.8125 5.515625 26.8125 
Q 5.515625 40.234375 12.765625 48.109375 
Q 20.015625 56 32.328125 56 
Q 43.359375 56 49.78125 48.890625 
Q 56.203125 41.796875 56.203125 29.59375 
z
M 47.21875 32.234375 
Q 47.125 39.59375 43.09375 43.984375 
Q 39.0625 48.390625 32.421875 48.390625 
Q 24.90625 48.390625 20.390625 44.140625 
Q 15.875 39.890625 15.1875 32.171875 
z
" id="DejaVuSans-101"/>
     </defs>
     <g transform="translate(120.128281 96.424453)rotate(-90)scale(0.09 -0.09)">
      <use xlink:href="#DejaVuSans-86"/>
      <use x="68.298828" xlink:href="#DejaVuSans-111"/>
      <use x="129.480469" xlink:href="#DejaVuSans-108"/>
      <use x="157.263672" xlink:href="#DejaVuSans-116"/>
      <use x="196.472656" xlink:href="#DejaVuSans-97"/>
      <use x="257.751953" xlink:href="#DejaVuSans-103"/>
      <use x="321.228516" xlink:href="#DejaVuSans-101"/>
     </g>
    </g>
   </g>
   <g id="line2d_1">
    <path clip-path="url(#pa67914ea66)" d="M 166.324843 111.927273 
L 161.509091 111.927273 
L 167.146354 90.109091 
L 167.174682 46.472727 
L 167.20301 111.927273 
L 165.758284 111.927273 
L 171.395547 90.109091 
L 171.423875 46.472727 
L 171.452203 111.927273 
L 185.304573 111.927273 
L 190.941836 90.109091 
L 190.970164 46.472727 
L 190.998491 111.927273 
L 193.2364 111.927273 
L 198.873663 90.109091 
L 198.901991 46.472727 
L 198.930319 111.927273 
L 207.117098 111.927273 
L 212.754361 90.109091 
L 212.782688 46.472727 
L 212.811016 111.927273 
L 211.93285 111.927273 
L 217.570113 90.109091 
L 217.598441 46.472727 
L 217.626769 111.927273 
L 252.725104 111.927273 
L 258.362367 90.109091 
L 258.390695 46.472727 
L 258.419023 111.927273 
L 315.896443 111.927273 
L 321.533706 90.109091 
L 321.562034 46.472727 
L 321.590362 111.927273 
L 478.782181 111.927273 
L 484.419444 90.109091 
L 484.447772 46.472727 
L 484.4761 111.927273 
L 502.577663 111.927273 
L 508.214925 90.109091 
L 508.243253 46.472727 
L 508.271581 111.927273 
L 505.693738 111.927273 
L 511.331 90.109091 
L 511.359328 46.472727 
L 511.387656 111.927273 
L 528.92266 111.927273 
L 534.559923 90.109091 
L 534.588251 46.472727 
L 534.616579 111.927273 
L 534.871531 111.927273 
L 540.508794 90.109091 
L 540.537122 46.472727 
L 540.565449 111.927273 
L 548.752228 111.927273 
L 554.389491 90.109091 
L 554.417819 46.472727 
L 554.446147 111.927273 
L 629.203619 111.927273 
L 634.840882 90.109091 
L 634.86921 46.472727 
L 634.897538 111.927273 
L 637.418726 111.927273 
L 643.055989 90.109091 
L 643.084317 46.472727 
L 643.112645 111.927273 
L 639.118403 111.927273 
L 644.755666 90.109091 
L 644.783994 46.472727 
L 644.812322 111.927273 
L 674.811626 111.927273 
L 680.448889 90.109091 
L 680.477217 46.472727 
L 680.505544 111.927273 
L 733.450491 111.927273 
L 739.087754 90.109091 
L 739.116082 46.472727 
L 739.14441 111.927273 
L 796.905109 111.927273 
L 802.542372 90.109091 
L 802.5707 46.472727 
L 802.599028 111.927273 
L 806.536614 111.927273 
L 812.173877 90.109091 
L 812.202205 46.472727 
L 812.230533 111.927273 
L 806.819893 111.927273 
L 812.457156 90.109091 
L 812.485484 46.472727 
L 812.513812 111.927273 
L 839.680321 111.927273 
L 845.317583 90.109091 
L 845.345911 46.472727 
L 845.374239 111.927273 
L 864.60892 111.927273 
L 870.246183 90.109091 
L 870.274511 46.472727 
L 870.302839 111.927273 
" style="fill:none;stroke:#000000;stroke-linecap:square;stroke-width:1.5;"/>
   </g>
   <g id="patch_3">
    <path d="M 126 115.2 
L 126 43.2 
" style="fill:none;stroke:#000000;stroke-linecap:square;stroke-linejoin:miter;stroke-width:0.6;"/>
   </g>
   <g id="patch_4">
    <path d="M 126 115.2 
L 907.2 115.2 
" style="fill:none;stroke:#000000;stroke-linecap:square;stroke-linejoin:miter;stroke-width:0.6;"/>
   </g>
  </g>
  <g id="axes_2">
   <g id="patch_5">
    <path d="M 126 320.4 
L 907.2 320.4 
L 907.2 140.4 
L 126 140.4 
z
" style="fill:#ffffff;"/>
   </g>
   <g id="matplotlib.axis_3">
    <g id="text_2">
     <!-- Time -->
     <defs>
      <path d="M -0.296875 72.90625 
L 61.375 72.90625 
L 61.375 64.59375 
L 35.5 64.59375 
L 35.5 0 
L 25.59375 0 
L 25.59375 64.59375 
L -0.296875 64.59375 
z
" id="DejaVuSans-84"/>
      <path d="M 9.421875 54.6875 
L 18.40625 54.6875 
L 18.40625 0 
L 9.421875 0 
z
M 9.421875 75.984375 
L 18.40625 75.984375 
L 18.40625 64.59375 
L 9.421875 64.59375 
z
" id="DejaVuSans-105"/>
      <path d="M 52 44.1875 
Q 55.375 50.25 60.0625 53.125 
Q 64.75 56 71.09375 56 
Q 79.640625 56 84.28125 50.015625 
Q 88.921875 44.046875 88.921875 33.015625 
L 88.921875 0 
L 79.890625 0 
L 79.890625 32.71875 
Q 79.890625 40.578125 77.09375 44.375 
Q 74.3125 48.1875 68.609375 48.1875 
Q 61.625 48.1875 57.5625 43.546875 
Q 53.515625 38.921875 53.515625 30.90625 
L 53.515625 0 
L 44.484375 0 
L 44.484375 32.71875 
Q 44.484375 40.625 41.703125 44.40625 
Q 38.921875 48.1875 33.109375 48.1875 
Q 26.21875 48.1875 22.15625 43.53125 
Q 18.109375 38.875 18.109375 30.90625 
L 18.109375 0 
L 9.078125 0 
L 9.078125 54.6875 
L 18.109375 54.6875 
L 18.109375 46.1875 
Q 21.1875 51.21875 25.484375 53.609375 
Q 29.78125 56 35.6875 56 
Q 41.65625 56 45.828125 52.96875 
Q 50 49.953125 52 44.1875 
z
" id="DejaVuSans-109"/>
     </defs>
     <g transform="translate(505.45125 331.238594)scale(0.09 -0.09)">
      <use xlink:href="#DejaVuSans-84"/>
      <use x="61.037109" xlink:href="#DejaVuSans-105"/>
      <use x="88.820312" xlink:href="#DejaVuSans-109"/>
      <use x="186.232422" xlink:href="#DejaVuSans-101"/>
     </g>
    </g>
   </g>
   <g id="matplotlib.axis_4">
    <g id="text_3">
     <!-- $\lambda_{LGN}(t)$ -->
     <defs>
      <path d="M 36.71875 67.4375 
L 48.828125 0 
L 39.3125 0 
L 31.84375 40.4375 
L 5.125 0 
L -4.390625 0 
L 29.734375 52.4375 
L 28.03125 62.109375 
Q 26.953125 68.265625 21.734375 68.265625 
L 17.046875 68.265625 
L 18.5 75.984375 
L 24.21875 75.875 
Q 35.203125 75.734375 36.71875 67.4375 
z
" id="DejaVuSans-Oblique-955"/>
      <path d="M 16.796875 72.90625 
L 26.703125 72.90625 
L 14.203125 8.203125 
L 49.703125 8.203125 
L 48.09375 0 
L 2.6875 0 
z
" id="DejaVuSans-Oblique-76"/>
      <path d="M 54.59375 10.890625 
L 58.40625 29.984375 
L 42.1875 29.984375 
L 43.703125 38.09375 
L 69.578125 38.09375 
L 63.28125 6 
Q 56.78125 2.4375 49.109375 0.5 
Q 41.453125 -1.421875 33.6875 -1.421875 
Q 19.96875 -1.421875 12.234375 6.1875 
Q 4.5 13.8125 4.5 27.390625 
Q 4.5 38.671875 9.203125 48.84375 
Q 13.921875 59.03125 22.21875 65.828125 
Q 27.4375 70.0625 33.640625 72.140625 
Q 39.84375 74.21875 47.40625 74.21875 
Q 54.25 74.21875 60.515625 72.484375 
Q 66.796875 70.75 72.515625 67.28125 
L 70.515625 56.78125 
Q 66.109375 61.375 60.203125 63.796875 
Q 54.296875 66.21875 47.609375 66.21875 
Q 39.84375 66.21875 33.9375 63.25 
Q 28.03125 60.296875 23.390625 54.109375 
Q 19.4375 48.828125 17.15625 41.671875 
Q 14.890625 34.515625 14.890625 27.09375 
Q 14.890625 16.890625 20.109375 11.734375 
Q 25.34375 6.59375 35.6875 6.59375 
Q 40.875 6.59375 45.703125 7.6875 
Q 50.53125 8.796875 54.59375 10.890625 
z
" id="DejaVuSans-Oblique-71"/>
      <path d="M 16.890625 72.90625 
L 30.171875 72.90625 
L 50.296875 10.40625 
L 62.5 72.90625 
L 72.125 72.90625 
L 57.90625 0 
L 44.578125 0 
L 24.515625 62.890625 
L 12.3125 0 
L 2.6875 0 
z
" id="DejaVuSans-Oblique-78"/>
      <path d="M 31 75.875 
Q 24.46875 64.65625 21.28125 53.65625 
Q 18.109375 42.671875 18.109375 31.390625 
Q 18.109375 20.125 21.3125 9.0625 
Q 24.515625 -2 31 -13.1875 
L 23.1875 -13.1875 
Q 15.875 -1.703125 12.234375 9.375 
Q 8.59375 20.453125 8.59375 31.390625 
Q 8.59375 42.28125 12.203125 53.3125 
Q 15.828125 64.359375 23.1875 75.875 
z
" id="DejaVuSans-40"/>
      <path d="M 42.28125 54.6875 
L 40.921875 47.703125 
L 23 47.703125 
L 17.1875 18.015625 
Q 16.890625 16.359375 16.75 15.234375 
Q 16.609375 14.109375 16.609375 13.484375 
Q 16.609375 10.359375 18.484375 8.9375 
Q 20.359375 7.515625 24.515625 7.515625 
L 33.59375 7.515625 
L 32.078125 0 
L 23.484375 0 
Q 15.484375 0 11.546875 3.125 
Q 7.625 6.25 7.625 12.59375 
Q 7.625 13.71875 7.765625 15.0625 
Q 7.90625 16.40625 8.203125 18.015625 
L 14.015625 47.703125 
L 6.390625 47.703125 
L 7.8125 54.6875 
L 15.28125 54.6875 
L 18.3125 70.21875 
L 27.296875 70.21875 
L 24.3125 54.6875 
z
" id="DejaVuSans-Oblique-116"/>
      <path d="M 8.015625 75.875 
L 15.828125 75.875 
Q 23.140625 64.359375 26.78125 53.3125 
Q 30.421875 42.28125 30.421875 31.390625 
Q 30.421875 20.453125 26.78125 9.375 
Q 23.140625 -1.703125 15.828125 -13.1875 
L 8.015625 -13.1875 
Q 14.5 -2 17.703125 9.0625 
Q 20.90625 20.125 20.90625 31.390625 
Q 20.90625 42.671875 17.703125 53.65625 
Q 14.5 64.65625 8.015625 75.875 
z
" id="DejaVuSans-41"/>
     </defs>
     <g transform="translate(120.128281 245.025)rotate(-90)scale(0.09 -0.09)">
      <use transform="translate(0 0.015625)" xlink:href="#DejaVuSans-Oblique-955"/>
      <use transform="translate(59.179688 -16.390625)scale(0.7)" xlink:href="#DejaVuSans-Oblique-76"/>
      <use transform="translate(98.178711 -16.390625)scale(0.7)" xlink:href="#DejaVuSans-Oblique-71"/>
      <use transform="translate(152.421875 -16.390625)scale(0.7)" xlink:href="#DejaVuSans-Oblique-78"/>
      <use transform="translate(207.519531 0.015625)" xlink:href="#DejaVuSans-40"/>
      <use transform="translate(246.533203 0.015625)" xlink:href="#DejaVuSans-Oblique-116"/>
      <use transform="translate(285.742188 0.015625)" xlink:href="#DejaVuSans-41"/>
     </g>
    </g>
   </g>
   <g id="line2d_2">
    <path clip-path="url(#p60c97708c4)" d="M 166.324843 148.581818 
L 180.48882 148.674224 
L 186.154411 148.900662 
L 191.820002 149.394511 
L 194.652798 149.786121 
L 197.485593 150.300404 
L 200.318389 150.958043 
L 203.151184 151.780085 
L 205.983979 152.787521 
L 208.816775 154.000836 
L 211.64957 155.439533 
L 214.482366 157.121641 
L 217.315161 159.063218 
L 220.147957 161.277869 
L 222.980752 163.776279 
L 225.813548 166.565792 
L 228.646343 169.650039 
L 231.479138 173.028647 
L 234.311934 176.697018 
L 237.144729 180.646222 
L 239.977525 184.862983 
L 242.81032 189.329784 
L 248.475911 198.923669 
L 254.141502 209.21396 
L 262.639888 225.385812 
L 271.138275 241.597251 
L 276.803866 251.97634 
L 282.469456 261.743019 
L 285.302252 266.338981 
L 288.135047 270.719175 
L 290.967843 274.869919 
L 293.800638 278.781738 
L 296.633434 282.449159 
L 299.466229 285.870177 
L 302.299025 289.045749 
L 305.13182 291.97927 
L 307.964615 294.676098 
L 310.797411 297.14309 
L 313.630206 299.388193 
L 316.463002 301.420066 
L 319.295797 303.247765 
L 322.128593 304.880451 
L 324.961388 306.327167 
L 327.794184 307.596633 
L 330.626979 308.697098 
L 333.459774 309.636214 
L 336.29257 310.420948 
L 339.125365 311.057512 
L 341.958161 311.551325 
L 344.790956 311.906989 
L 347.623752 312.128285 
L 350.456547 312.218182 
L 353.289343 312.178858 
L 356.122138 312.01174 
L 358.954933 311.717545 
L 361.787729 311.296341 
L 364.620524 310.747616 
L 367.45332 310.070356 
L 370.286115 309.26314 
L 373.118911 308.324241 
L 375.951706 307.25175 
L 378.784502 306.043702 
L 381.617297 304.698223 
L 384.450092 303.213687 
L 387.282888 301.588888 
L 390.115683 299.823214 
L 392.948479 297.916844 
L 395.781274 295.87093 
L 401.446865 291.371134 
L 407.112456 286.359793 
L 412.778047 280.89982 
L 418.443638 275.082933 
L 426.942024 265.951807 
L 438.273206 253.790485 
L 443.938797 248.074019 
L 449.604388 242.805444 
L 452.437183 240.38133 
L 455.269979 238.116565 
L 458.102774 236.0231 
L 460.935569 234.110698 
L 463.768365 232.386806 
L 466.60116 230.856499 
L 469.433956 229.522463 
L 472.266751 228.385039 
L 475.099547 227.442314 
L 477.932342 226.69026 
L 480.765138 226.122903 
L 483.597933 225.73253 
L 486.430729 225.509915 
L 489.263524 225.44457 
L 492.096319 225.524991 
L 494.929115 225.738917 
L 500.594706 226.515941 
L 506.260297 227.67163 
L 511.925888 229.104466 
L 520.424274 231.572294 
L 543.086637 238.447075 
L 551.585024 240.749167 
L 560.08341 242.778182 
L 568.581796 244.496605 
L 577.080183 245.892229 
L 585.578569 246.9743 
L 594.076955 247.76923 
L 602.575342 248.316064 
L 611.073728 248.661805 
L 622.40491 248.896654 
L 639.401683 248.986683 
L 798.038228 248.989864 
L 871.690909 248.989861 
L 871.690909 248.989861 
" style="fill:none;stroke:#1f77b4;stroke-linecap:square;stroke-width:1.5;"/>
   </g>
   <g id="patch_6">
    <path d="M 126 320.4 
L 126 140.4 
" style="fill:none;stroke:#000000;stroke-linecap:square;stroke-linejoin:miter;stroke-width:0.6;"/>
   </g>
   <g id="patch_7">
    <path d="M 126 320.4 
L 907.2 320.4 
" style="fill:none;stroke:#000000;stroke-linecap:square;stroke-linejoin:miter;stroke-width:0.6;"/>
   </g>
  </g>
 </g>
 <defs>
  <clipPath id="pa67914ea66">
   <rect height="72" width="781.2" x="126" y="43.2"/>
  </clipPath>
  <clipPath id="p60c97708c4">
   <rect height="180" width="781.2" x="126" y="140.4"/>
  </clipPath>
 </defs>
</svg>
